<?xml version="1.0" standalone="no"?>
<!DOCTYPE svg PUBLIC "-//W3C//DTD SVG 20010904//EN"
 "http://www.w3.org/TR/2001/REC-SVG-20010904/DTD/svg10.dtd">
<svg version="1.0" xmlns="http://www.w3.org/2000/svg"
 width="512.000000pt" height="512.000000pt" viewBox="0 0 512.000000 512.000000"
 preserveAspectRatio="xMidYMid meet">

<g transform="translate(0.000000,512.000000) scale(0.100000,-0.100000)"
fill="#000000" stroke="none">
<path d="M346 4827 c-99 -57 -102 -207 -5 -266 17 -11 169 -53 338 -96 195
-49 321 -85 348 -101 44 -25 78 -65 107 -121 12 -24 62 -424 182 -1439 90
-774 163 -1407 162 -1409 -2 -1 -30 -17 -63 -35 -75 -42 -171 -137 -212 -210
-134 -237 -98 -516 93 -708 121 -121 277 -181 447 -169 194 13 352 106 459
272 61 93 83 178 83 315 -1 111 -8 147 -50 243 -7 16 33 17 750 17 717 0 757
-1 750 -17 -98 -255 -56 -483 121 -661 121 -121 277 -181 447 -169 193 13 352
106 459 271 76 118 107 299 74 438 -52 221 -231 397 -451 443 -59 12 -261 15
-1330 15 l-1261 0 -28 243 c-29 255 -241 2072 -276 2362 -27 229 -35 263 -82
358 -30 59 -60 100 -108 148 -102 101 -160 125 -531 219 -174 44 -331 80 -350
80 -19 0 -52 -10 -73 -23z m1469 -3731 c56 -26 117 -88 140 -142 21 -51 19
-159 -4 -210 -43 -95 -138 -155 -244 -155 -76 0 -125 19 -182 72 -119 110
-112 298 16 401 77 62 186 75 274 34z m2560 0 c56 -26 117 -88 140 -142 21
-51 19 -159 -4 -210 -43 -95 -138 -155 -244 -155 -76 0 -125 19 -182 72 -119
110 -112 298 16 401 77 62 186 75 274 34z"/>
<path d="M3454 4516 c-63 -28 -101 -108 -84 -180 7 -34 44 -75 237 -268 l228
-228 -228 -228 c-193 -193 -230 -234 -237 -268 -19 -82 37 -175 113 -189 86
-16 95 -11 337 231 124 123 230 224 235 224 6 0 107 -97 225 -216 118 -119
229 -222 247 -230 71 -31 159 -1 194 66 21 39 25 110 8 143 -6 12 -111 122
-232 245 l-222 222 222 223 c121 122 226 232 232 244 16 32 13 100 -6 140 -18
39 -61 70 -111 79 -71 14 -95 -3 -327 -236 -121 -121 -224 -220 -230 -220 -6
0 -107 97 -225 216 -118 119 -229 222 -247 230 -40 17 -89 17 -129 0z"/>
</g>
</svg>
